<svg width="23" height="22" viewBox="0 0 23 22" fill="none" xmlns="http://www.w3.org/2000/svg">
<path d="M12.9484 0H16.1463C16.3788 0.962643 17.0184 2.17705 18.1409 3.38204C19.2391 4.56279 20.6959 5.38541 22.6389 5.38541V8.07812C19.8076 8.07812 17.6806 6.98219 16.1786 5.61564V14.8099C16.1786 16.1413 15.705 17.4428 14.8176 18.5499C13.9303 19.6569 12.6691 20.5197 11.1935 21.0292C9.71791 21.5387 8.09421 21.6721 6.52774 21.4123C4.96127 21.1526 3.52237 20.5114 2.393 19.57C1.26364 18.6285 0.494532 17.429 0.182941 16.1232C-0.12865 14.8174 0.0312699 13.4638 0.642478 12.2338C1.25369 11.0037 2.28873 9.95232 3.61672 9.21263C4.94471 8.47293 6.50601 8.07812 8.10317 8.07812V10.7708C7.14487 10.7708 6.2081 11.0077 5.4113 11.4515C4.61451 11.8953 3.99348 12.5262 3.62675 13.2642C3.26003 14.0022 3.16408 14.8144 3.35103 15.5979C3.53799 16.3814 3.99945 17.1011 4.67707 17.6659C5.35469 18.2308 6.21803 18.6155 7.15791 18.7713C8.0978 18.9272 9.07201 18.8472 9.95736 18.5415C10.8427 18.2358 11.5994 17.7181 12.1318 17.0539C12.6642 16.3896 12.9484 15.6087 12.9484 14.8099V0Z" fill="white"/>
</svg>
