<svg width="23" height="22" viewBox="0 0 23 22" fill="none" xmlns="http://www.w3.org/2000/svg">
<path fill-rule="evenodd" clip-rule="evenodd" d="M6.64458 0.147938C7.85017 0.095063 8.23456 0.083313 11.3056 0.083313C14.3766 0.083313 14.7609 0.0960421 15.9655 0.147938C17.1701 0.199834 17.9923 0.382938 18.7117 0.648292C19.4651 0.919521 20.1486 1.3435 20.7138 1.89183C21.2894 2.4294 21.7334 3.07956 22.0171 3.79827C22.2966 4.48369 22.4878 5.26702 22.5433 6.41264C22.5988 7.56316 22.6111 7.92937 22.6111 10.8541C22.6111 13.7799 22.5978 14.1461 22.5433 15.2947C22.4888 16.4403 22.2966 17.2236 22.0171 17.909C21.7334 18.6278 21.2886 19.2791 20.7138 19.8174C20.1486 20.3658 19.4651 20.7888 18.7117 21.059C17.9923 21.3253 17.1701 21.5075 15.9676 21.5603C14.7609 21.6132 14.3766 21.625 11.3056 21.625C8.23456 21.625 7.85017 21.6122 6.64458 21.5603C5.44208 21.5084 4.61986 21.3253 3.90042 21.059C3.14595 20.7887 2.46237 20.365 1.89728 19.8174C1.32211 19.2795 0.877018 18.6286 0.593028 17.91C0.3145 17.2246 0.123333 16.4413 0.0678333 15.2956C0.0123333 14.1451 0 13.7789 0 10.8541C0 7.92839 0.0133611 7.56218 0.0678333 6.4146C0.122306 5.26702 0.3145 4.48369 0.593028 3.79827C0.877437 3.07964 1.32287 2.42872 1.89831 1.89085C2.4626 1.34301 3.14549 0.918976 3.89939 0.648292C4.61883 0.382938 5.44106 0.200813 6.64356 0.147938H6.64458ZM15.874 2.08669C14.6818 2.03479 14.3241 2.02402 11.3056 2.02402C8.28697 2.02402 7.92931 2.03479 6.73708 2.08669C5.63428 2.13467 5.03611 2.30994 4.63733 2.45779C4.11008 2.65362 3.73289 2.88569 3.33719 3.26267C2.9621 3.61032 2.67344 4.03355 2.49236 4.50131C2.33717 4.88123 2.15319 5.4511 2.10283 6.50175C2.04836 7.63758 2.03706 7.97833 2.03706 10.8541C2.03706 13.73 2.04836 14.0707 2.10283 15.2065C2.15319 16.2572 2.33717 16.8271 2.49236 17.207C2.67325 17.674 2.96206 18.098 3.33719 18.4456C3.70206 18.803 4.14708 19.0782 4.63733 19.2505C5.03611 19.3983 5.63428 19.5736 6.73708 19.6216C7.92931 19.6735 8.28594 19.6843 11.3056 19.6843C14.3252 19.6843 14.6818 19.6735 15.874 19.6216C16.9768 19.5736 17.575 19.3983 17.9738 19.2505C18.501 19.0547 18.8782 18.8226 19.2739 18.4456C19.6491 18.098 19.9379 17.674 20.1188 17.207C20.2739 16.8271 20.4579 16.2572 20.5083 15.2065C20.5628 14.0707 20.5741 13.73 20.5741 10.8541C20.5741 7.97833 20.5628 7.63758 20.5083 6.50175C20.4579 5.4511 20.2739 4.88123 20.1188 4.50131C19.9132 3.999 19.6696 3.63964 19.2739 3.26267C18.909 2.90534 18.4648 2.63033 17.9738 2.45779C17.575 2.30994 16.9768 2.13467 15.874 2.08669V2.08669ZM9.86153 14.1745C10.668 14.4943 11.566 14.5375 12.4021 14.2966C13.2383 14.0557 13.9607 13.5458 14.446 12.8538C14.9314 12.1619 15.1495 11.3309 15.0632 10.5027C14.9768 9.67458 14.5914 8.90068 13.9726 8.3132C13.5782 7.93767 13.1013 7.65013 12.5762 7.47127C12.0512 7.29241 11.491 7.22668 10.9361 7.27883C10.3811 7.33097 9.84524 7.49969 9.36697 7.77283C8.88869 8.04597 8.47993 8.41675 8.17012 8.85845C7.8603 9.30016 7.65714 9.80182 7.57525 10.3273C7.49337 10.8528 7.53479 11.3891 7.69655 11.8975C7.85832 12.4059 8.13638 12.8738 8.51074 13.2675C8.8851 13.6612 9.34643 13.971 9.86153 14.1745ZM7.1965 6.93943C7.73611 6.42535 8.37672 6.01755 9.08175 5.73933C9.78678 5.46111 10.5424 5.31791 11.3056 5.31791C12.0687 5.31791 12.8243 5.46111 13.5294 5.73933C14.2344 6.01755 14.875 6.42535 15.4146 6.93943C15.9542 7.45352 16.3823 8.06383 16.6743 8.73552C16.9663 9.4072 17.1166 10.1271 17.1166 10.8541C17.1166 11.5812 16.9663 12.3011 16.6743 12.9728C16.3823 13.6445 15.9542 14.2548 15.4146 14.7688C14.3248 15.8071 12.8468 16.3904 11.3056 16.3904C9.76436 16.3904 8.28629 15.8071 7.1965 14.7688C6.10671 13.7306 5.49447 12.3224 5.49447 10.8541C5.49447 9.38584 6.10671 7.97768 7.1965 6.93943V6.93943ZM18.4054 6.14239C18.5392 6.02222 18.6462 5.87771 18.7203 5.71741C18.7943 5.55711 18.8338 5.38429 18.8365 5.20918C18.8392 5.03407 18.805 4.86022 18.7359 4.69794C18.6667 4.53565 18.5642 4.38823 18.4342 4.26439C18.3042 4.14055 18.1495 4.04282 17.9791 3.97698C17.8088 3.91115 17.6263 3.87854 17.4425 3.88109C17.2587 3.88364 17.0773 3.92131 16.909 3.99185C16.7408 4.06239 16.5891 4.16438 16.4629 4.29177C16.2176 4.53953 16.0833 4.86862 16.0885 5.20918C16.0937 5.54974 16.2381 5.87496 16.4909 6.1158C16.7437 6.35664 17.085 6.49414 17.4425 6.4991C17.8 6.50407 18.1454 6.37611 18.4054 6.14239V6.14239Z" fill="white"/>
</svg>
