<svg width="23" height="22" viewBox="0 0 23 22" fill="none" xmlns="http://www.w3.org/2000/svg">
<path d="M11.3056 0.062439C5.06227 0.062439 0 4.88527 0 10.8333C0 16.7813 5.06227 21.6041 11.3056 21.6041C17.5488 21.6041 22.6111 16.7813 22.6111 10.8333C22.6111 4.88527 17.5488 0.062439 11.3056 0.062439ZM16.7388 8.18143C16.7464 8.29443 16.7464 8.41224 16.7464 8.52764C16.7464 12.057 13.925 16.1225 8.76938 16.1225C7.17953 16.1225 5.70577 15.6825 4.46418 14.9252C4.6913 14.9493 4.90833 14.9589 5.1405 14.9589C6.45275 14.9589 7.65901 14.5357 8.62049 13.8193C7.38899 13.7952 6.35433 13.0259 6.00103 11.9681C6.43256 12.0282 6.82119 12.0282 7.26533 11.92C6.63123 11.7972 6.06128 11.4691 5.65231 10.9914C5.24335 10.5137 5.02059 9.91584 5.02189 9.29939V9.26573C5.39285 9.46528 5.82943 9.58789 6.28619 9.60472C5.90221 9.36092 5.58731 9.03062 5.36941 8.64311C5.15151 8.2556 5.03734 7.82285 5.03703 7.38324C5.03703 6.88557 5.1733 6.43117 5.41809 6.03688C6.12191 6.86233 7.00019 7.53745 7.99582 8.01834C8.99145 8.49924 10.0822 8.77516 11.197 8.82816C10.8008 7.01299 12.2241 5.54402 13.9351 5.54402C14.7426 5.54402 15.4694 5.86618 15.9817 6.38549C16.6151 6.27249 17.2208 6.0465 17.7608 5.74357C17.5514 6.36145 17.1123 6.88316 16.5293 7.21254C17.0946 7.15484 17.6397 7.00578 18.1444 6.79661C17.7634 7.33034 17.2864 7.80397 16.7388 8.18143V8.18143Z" fill="white"/>
</svg>
