<svg width="23" height="22" viewBox="0 0 23 22" fill="none" xmlns="http://www.w3.org/2000/svg">
<path d="M22.6389 10.7196C22.6389 10.6467 22.6389 10.5638 22.6364 10.4677C22.6338 10.1992 22.6288 9.89749 22.6237 9.57593C22.6036 8.65101 22.5682 7.7294 22.5127 6.86084C22.437 5.66408 22.326 4.66623 22.1745 3.91701C22.0148 3.13513 21.7016 2.42205 21.2662 1.84902C20.8309 1.27599 20.2887 0.863101 19.6939 0.651609C18.9797 0.399659 17.5817 0.243849 15.6133 0.14771C14.677 0.101298 13.6752 0.0714619 12.6733 0.0548863C12.3226 0.048256 11.997 0.0449411 11.7043 0.041626H10.9624C10.6696 0.0449411 10.3441 0.048256 9.99331 0.0548863C8.99146 0.0714619 7.98961 0.101298 7.05337 0.14771C5.08499 0.247164 3.68441 0.402974 2.97277 0.651609C2.37771 0.862582 1.83532 1.2753 1.39994 1.84841C0.964565 2.42151 0.651495 3.13488 0.492106 3.91701C0.338169 4.66623 0.229656 5.66408 0.153949 6.86084C0.0984307 7.7294 0.0631008 8.65101 0.0429123 9.57593C0.0353416 9.89749 0.0328181 10.1992 0.0302945 10.4677C0.0302945 10.5638 0.027771 10.6467 0.027771 10.7196V10.9053C0.027771 10.9782 0.027771 11.0611 0.0302945 11.1572C0.0328181 11.4258 0.0378652 11.7274 0.0429123 12.049C0.0631008 12.9739 0.0984307 13.8955 0.153949 14.7641C0.229656 15.9609 0.340693 16.9587 0.492106 17.7079C0.815122 19.2959 1.76398 20.549 2.97277 20.9733C3.68441 21.2253 5.08499 21.3811 7.05337 21.4772C7.98961 21.5236 8.99146 21.5535 9.99331 21.5701C10.3441 21.5767 10.6696 21.58 10.9624 21.5833H11.7043C11.997 21.58 12.3226 21.5767 12.6733 21.5701C13.6752 21.5535 14.677 21.5236 15.6133 21.4772C17.5817 21.3778 18.9822 21.222 19.6939 20.9733C20.9027 20.549 21.8515 19.2992 22.1745 17.7079C22.3285 16.9587 22.437 15.9609 22.5127 14.7641C22.5682 13.8955 22.6036 12.9739 22.6237 12.049C22.6313 11.7274 22.6338 11.4258 22.6364 11.1572C22.6364 11.0611 22.6389 10.9782 22.6389 10.9053V10.7196V10.7196ZM20.8219 10.892C20.8219 10.9616 20.8219 11.0379 20.8194 11.1274C20.8169 11.386 20.8118 11.6711 20.8068 11.9794C20.7891 12.8612 20.7538 13.743 20.7008 14.5619C20.6326 15.6293 20.5368 16.5045 20.4181 17.0913C20.2617 17.8571 19.8024 18.4638 19.222 18.666C18.692 18.8516 17.3571 19.0008 15.5426 19.0903C14.624 19.1367 13.6348 19.1666 12.6481 19.1832C12.3024 19.1898 11.9819 19.1931 11.6942 19.1931H10.9725L10.0186 19.1832C9.03184 19.1666 8.04513 19.1367 7.12403 19.0903C5.30959 18.9975 3.9721 18.8516 3.44467 18.666C2.86425 18.4605 2.40497 17.8571 2.24851 17.0913C2.1299 16.5045 2.034 15.6293 1.96587 14.5619C1.91287 13.743 1.88007 12.8612 1.85988 11.9794C1.85231 11.6711 1.84978 11.3827 1.84726 11.1274C1.84726 11.0379 1.84474 10.9583 1.84474 10.892V10.7329C1.84474 10.6633 1.84474 10.587 1.84726 10.4975C1.84978 10.239 1.85483 9.95385 1.85988 9.64554C1.87754 8.76372 1.91287 7.8819 1.96587 7.06306C2.034 5.99559 2.1299 5.1204 2.24851 4.53362C2.40497 3.76783 2.86425 3.16116 3.44467 2.95894C3.97462 2.77329 5.30959 2.62411 7.12403 2.5346C8.0426 2.48819 9.03184 2.45835 10.0186 2.44178C10.3643 2.43515 10.6848 2.43183 10.9725 2.43183H11.6942L12.6481 2.44178C13.6348 2.45835 14.6215 2.48819 15.5426 2.5346C17.3571 2.62742 18.6946 2.77329 19.222 2.95894C19.8024 3.16447 20.2617 3.76783 20.4181 4.53362C20.5368 5.1204 20.6326 5.99559 20.7008 7.06306C20.7538 7.8819 20.7866 8.76372 20.8068 9.64554C20.8143 9.95385 20.8169 10.2423 20.8194 10.4975C20.8194 10.587 20.8219 10.6666 20.8219 10.7329V10.892ZM9.08736 15.2547L14.942 10.7793L9.08736 6.3702V15.2547Z" fill="white"/>
</svg>
